<svg width="15" height="14" viewBox="0 0 15 14" fill="none" xmlns="http://www.w3.org/2000/svg">
<path fill-rule="evenodd" clip-rule="evenodd" d="M1.00021 1.8685C1.00021 1.3996 1.39226 1.00021 1.89993 1.00021C2.4076 1.00021 2.79965 1.3996 2.79965 1.8685C2.79965 2.3374 2.4076 2.73679 1.89993 2.73679C1.39226 2.73679 1.00021 2.3374 1.00021 1.8685ZM1.89993 0C0.861394 0 0 0.825911 0 1.8685C0 2.91109 0.861394 3.737 1.89993 3.737C2.93847 3.737 3.79986 2.91109 3.79986 1.8685C3.79986 0.825911 2.93847 0 1.89993 0ZM10.2986 5.10541C9.31386 5.10541 8.37166 5.48792 7.67872 6.1653C6.98617 6.84231 6.59924 7.75808 6.59924 8.71049V12.9998H8.39868V8.71049C8.39868 8.21122 8.60168 7.73476 8.95919 7.38527C9.31633 7.03616 9.79833 6.84199 10.2986 6.84199C10.7989 6.84199 11.2809 7.03616 11.638 7.38527C11.9955 7.73476 12.1985 8.21122 12.1985 8.71049V12.9998H13.998V8.71049C13.998 7.75808 13.6111 6.84231 12.9185 6.1653C12.2256 5.48792 11.2834 5.10541 10.2986 5.10541ZM10.2986 4.1052C9.05582 4.1052 7.86171 4.5877 6.97954 5.45007C6.09699 6.31281 5.59903 7.48538 5.59903 8.71049V13.4999C5.59903 13.7761 5.82293 14 6.09913 14H8.89878C9.17498 14 9.39889 13.7761 9.39889 13.4999V8.71049C9.39889 8.48392 9.49086 8.26427 9.65837 8.10051C9.82628 7.93638 10.0564 7.8422 10.2986 7.8422C10.5408 7.8422 10.7709 7.93638 10.9388 8.10051C11.1064 8.26427 11.1983 8.48392 11.1983 8.71049V13.4999C11.1983 13.7761 11.4222 14 11.6984 14H14.4981C14.7743 14 14.9982 13.7761 14.9982 13.4999V8.71049C14.9982 7.48538 14.5002 6.31281 13.6177 5.45007C12.7355 4.5877 11.5414 4.1052 10.2986 4.1052ZM0 5.28947C0 5.01327 0.223904 4.78936 0.500105 4.78936H3.29975C3.57595 4.78936 3.79986 5.01327 3.79986 5.28947V13.4998C3.79986 13.776 3.57595 13.9999 3.29975 13.9999H0.500105C0.223904 13.9999 0 13.776 0 13.4998V5.28947ZM1.00021 5.78957V12.9997H2.79965V5.78957H1.00021Z" fill="white"/>
</svg>
