<svg width="16" height="12" viewBox="0 0 16 12" fill="none" xmlns="http://www.w3.org/2000/svg">
<path d="M15.186 2.22186C15.105 1.88419 14.9401 1.57479 14.7078 1.32493C14.4756 1.07507 14.1843 0.893598 13.8633 0.798836C12.6907 0.5 8 0.5 8 0.5C8 0.5 3.30933 0.5 2.13667 0.827296C1.81572 0.922059 1.52441 1.10353 1.29218 1.35339C1.05994 1.60325 0.894998 1.91265 0.81401 2.25032C0.599395 3.49231 0.494415 4.75223 0.50039 6.01423C0.49274 7.28574 0.597726 8.55526 0.81401 9.8066C0.903296 10.1338 1.07193 10.4314 1.30363 10.6707C1.53532 10.91 1.82224 11.0829 2.13667 11.1727C3.30933 11.5 8 11.5 8 11.5C8 11.5 12.6907 11.5 13.8633 11.1727C14.1843 11.0779 14.4756 10.8965 14.7078 10.6466C14.9401 10.3967 15.105 10.0874 15.186 9.74968C15.399 8.51704 15.5039 7.26673 15.4996 6.01423C15.5073 4.74272 15.4023 3.4732 15.186 2.22186V2.22186Z" stroke="white" stroke-linecap="round" stroke-linejoin="round"/>
</svg>
