<svg width="24" height="24" viewBox="0 0 24 24" fill="none" xmlns="http://www.w3.org/2000/svg">
<path fill-rule="evenodd" clip-rule="evenodd" d="M2.82812 0.765232C3.09057 0.503173 3.40572 0.299884 3.75269 0.168835C4.09965 0.0377868 4.4705 -0.0180279 4.84067 0.00508967C5.21083 0.0282073 5.57186 0.129729 5.89982 0.302928C6.22778 0.476127 6.51519 0.717048 6.743 1.00972L9.43542 4.46862C9.9289 5.1031 10.1029 5.92957 9.9079 6.70955L9.08743 9.99445C9.04501 10.1646 9.0473 10.3428 9.09408 10.5118C9.14086 10.6808 9.23055 10.8348 9.35442 10.9589L13.0398 14.6443C13.1641 14.7684 13.3183 14.8583 13.4876 14.9051C13.6569 14.9518 13.8354 14.954 14.0058 14.9113L17.2892 14.0908C17.6741 13.9946 18.0758 13.9871 18.4641 14.069C18.8523 14.1508 19.2168 14.3199 19.5301 14.5633L22.989 17.2542C24.2325 18.2217 24.3465 20.0591 23.2335 21.1706L21.6825 22.7216C20.5726 23.8315 18.9136 24.319 17.3672 23.7745C13.4091 22.3819 9.81532 20.1159 6.8525 17.1447C3.88152 14.1823 1.61557 10.5891 0.2227 6.63155C-0.320284 5.0866 0.167201 3.42615 1.27717 2.31618L2.82812 0.765232Z" fill="white"/>
</svg>
