<svg width="17" height="17" viewBox="0 0 17 17" fill="none" xmlns="http://www.w3.org/2000/svg">
<path fill-rule="evenodd" clip-rule="evenodd" d="M4.51446 1.05788C2.60544 1.05788 1.05788 2.60544 1.05788 4.51446L1.05788 12.4855C1.05788 14.3945 2.60544 15.9421 4.51446 15.9421H12.4855C14.3945 15.9421 15.9421 14.3945 15.9421 12.4855V4.51446C15.9421 2.60544 14.3945 1.05788 12.4855 1.05788L4.51446 1.05788ZM0 4.51446C0 2.02119 2.02119 0 4.51446 0L12.4855 0C14.9788 0 17 2.02119 17 4.51446V12.4855C17 14.9788 14.9788 17 12.4855 17H4.51446C2.02119 17 0 14.9788 0 12.4855L0 4.51446ZM8.92469 5.83463C8.37136 5.75258 7.80624 5.84709 7.30971 6.10473C6.81319 6.36237 6.41054 6.77001 6.15905 7.26967C5.90755 7.76934 5.82002 8.33558 5.90889 8.88786C5.99775 9.44014 6.25851 9.95034 6.65405 10.3459C7.0496 10.7414 7.5598 11.0022 8.11208 11.0911C8.66436 11.1799 9.2306 11.0924 9.73027 10.8409C10.2299 10.5894 10.6376 10.1867 10.8952 9.69023C11.1528 9.1937 11.2474 8.62858 11.1653 8.07525C11.0816 7.51082 10.8186 6.98828 10.4151 6.58481C10.0117 6.18134 9.48911 5.91833 8.92469 5.83463ZM6.82249 5.16574C7.51652 4.80562 8.30643 4.67351 9.07986 4.7882C9.8688 4.90519 10.5992 5.27282 11.1632 5.83678C11.7271 6.40074 12.0947 7.13114 12.2117 7.92007C12.3264 8.69351 12.1943 9.48342 11.8342 10.1775C11.4741 10.8715 10.9043 11.4343 10.2059 11.7858C9.50746 12.1374 8.71598 12.2597 7.94401 12.1355C7.17205 12.0113 6.45891 11.6468 5.90602 11.0939C5.35314 10.541 4.98867 9.82789 4.86445 9.05592C4.74023 8.28396 4.86258 7.49248 5.21412 6.79406C5.56565 6.09564 6.12846 5.52586 6.82249 5.16574ZM12.8841 3.58698C12.5919 3.58698 12.3551 3.82379 12.3551 4.11592C12.3551 4.40804 12.5919 4.64486 12.8841 4.64486H12.8932C13.1853 4.64486 13.4221 4.40804 13.4221 4.11592C13.4221 3.82379 13.1853 3.58698 12.8932 3.58698H12.8841Z" fill="white"/>
</svg>
