<svg width="24" height="24" viewBox="0 0 24 24" fill="none" xmlns="http://www.w3.org/2000/svg">
<path d="M23.9464 1.02868C24.0009 0.892386 24.0143 0.74308 23.9848 0.59927C23.9553 0.45546 23.8842 0.32347 23.7804 0.219663C23.6766 0.115857 23.5446 0.0447989 23.4008 0.0152986C23.257 -0.0142017 23.1077 -0.000846865 22.9714 0.0537075L1.15159 8.78194H1.15009L0.47211 9.05193C0.3437 9.10315 0.231946 9.18887 0.149194 9.29962C0.0664413 9.41037 0.0159112 9.54183 0.00318473 9.6795C-0.00954169 9.81716 0.0160309 9.95566 0.0770778 10.0797C0.138125 10.2037 0.23227 10.3085 0.349114 10.3824L0.964095 10.7724L0.965595 10.7754L8.45787 15.5422L13.2247 23.0345L13.2277 23.0375L13.6177 23.6525C13.6918 23.7689 13.7967 23.8626 13.9206 23.9232C14.0445 23.9839 14.1828 24.0092 14.3202 23.9963C14.4576 23.9834 14.5888 23.9329 14.6993 23.8503C14.8099 23.7676 14.8954 23.6561 14.9467 23.528L23.9464 1.02868ZM21.197 3.86359L9.95632 15.1042L9.63383 14.5973C9.57474 14.5042 9.49587 14.4254 9.40284 14.3663L8.89585 14.0438L20.1365 2.80312L21.9035 2.09665L21.1985 3.86359H21.197Z" fill="#EEEEEE"/>
</svg>
